<?xml version="1.0" standalone="no"?>
<!DOCTYPE svg PUBLIC "-//W3C//DTD SVG 20010904//EN"
 "http://www.w3.org/TR/2001/REC-SVG-20010904/DTD/svg10.dtd">
<svg version="1.0" xmlns="http://www.w3.org/2000/svg"
 width="329.000000pt" height="58.000000pt" viewBox="0 0 329.000000 58.000000"
 preserveAspectRatio="xMidYMid meet">

<g transform="translate(0.000000,58.000000) scale(0.100000,-0.100000)"
fill="#000000" stroke="none">
<path d="M452 538 c-38 -38 4 -104 114 -177 l76 -51 -126 0 c-82 0 -126 4
-126 11 0 5 -26 22 -57 37 -72 33 -172 36 -249 8 -64 -25 -86 -44 -82 -75 3
-22 11 -28 60 -41 49 -12 79 -12 188 -2 72 6 139 16 150 22 21 11 223 14 318
4 l62 -7 -53 -24 c-73 -34 -117 -79 -117 -119 0 -34 13 -44 57 -44 47 0 95 33
157 108 l61 75 70 -6 c38 -4 105 -12 148 -18 l78 -12 -58 -23 c-77 -31 -145
-103 -141 -148 6 -67 91 -34 210 81 68 66 80 73 105 67 92 -21 224 -55 257
-67 l40 -14 -42 -23 c-40 -22 -57 -51 -29 -50 6 1 37 14 67 29 l55 29 57 -29
c64 -32 78 -35 78 -16 0 7 -19 24 -42 37 l-42 23 40 14 c33 12 165 46 257 67
25 6 37 -1 105 -67 119 -115 204 -148 210 -81 4 45 -64 117 -141 148 l-58 23
78 12 c43 6 110 14 148 18 l70 6 61 -75 c62 -75 110 -108 157 -108 44 0 57 10
57 44 0 40 -44 85 -117 119 l-53 24 62 7 c95 10 297 7 318 -4 11 -6 78 -16
150 -22 109 -10 139 -10 188 2 49 13 57 19 60 41 4 31 -18 50 -82 75 -77 28
-177 25 -248 -8 -32 -15 -58 -32 -58 -37 0 -7 -44 -11 -126 -11 l-126 0 76 51
c84 56 126 103 126 140 0 58 -63 66 -136 16 -50 -33 -134 -145 -134 -179 0
-27 -27 -35 -152 -42 -64 -3 -125 -9 -135 -12 -10 -3 -1 6 20 19 89 57 148
140 129 182 -15 32 -56 39 -100 18 -41 -20 -125 -134 -143 -193 l-11 -36 -123
-23 c-67 -12 -133 -25 -146 -28 -20 -5 -15 4 28 48 29 30 57 67 63 84 25 67
-20 104 -82 68 -39 -23 -116 -143 -124 -194 -6 -34 -9 -36 -82 -60 l-77 -25
-76 25 c-74 24 -77 26 -83 60 -8 51 -85 171 -124 194 -62 36 -107 -1 -82 -68
6 -17 34 -54 63 -84 43 -44 48 -53 28 -48 -13 3 -79 16 -146 28 l-123 23 -11
36 c-6 19 -32 67 -58 105 -53 78 -102 111 -148 99 -80 -20 -32 -131 92 -211
21 -13 30 -22 20 -19 -10 3 -71 9 -135 12 -125 7 -152 15 -152 42 0 34 -84
146 -134 180 -50 33 -102 42 -124 20z"/>
</g>
</svg>
